<svg version="1.1" viewBox="0.0 0.0 563.1154855643044 299.18110236220474" fill="none" stroke="none" stroke-linecap="square" stroke-miterlimit="10" xmlns:xlink="http://www.w3.org/1999/xlink" xmlns="http://www.w3.org/2000/svg"><clipPath id="p.0"><path d="m0 0l563.1155 0l0 299.1811l-563.1155 0l0 -299.1811z" clip-rule="nonzero"/></clipPath><g clip-path="url(#p.0)"><path fill="#000000" fill-opacity="0.0" d="m0 0l563.1155 0l0 299.1811l-563.1155 0z" fill-rule="evenodd"/><path fill="#000000" fill-opacity="0.0" d="m63.0534 6.024911l0 0l0 250.39369l481.10236 0" fill-rule="evenodd"/><path stroke="#000000" stroke-width="2.0" stroke-linejoin="round" stroke-linecap="butt" d="m63.053394 18.024912l0 238.39369l469.10236 0" fill-rule="evenodd"/><path fill="#000000" stroke="#000000" stroke-width="2.0" stroke-linecap="butt" d="m66.35686 18.02491l-3.303463 -9.076194l-3.303463 9.076194z" fill-rule="evenodd"/><path fill="#000000" stroke="#000000" stroke-width="2.0" stroke-linecap="butt" d="m532.15576 259.72208l9.076172 -3.3034668l-9.076172 -3.3034668z" fill-rule="evenodd"/><path fill="#000000" fill-opacity="0.0" d="m200.97728 10.129898l0 246.99211" fill-rule="evenodd"/><path stroke="#666666" stroke-width="1.0" stroke-linejoin="round" stroke-linecap="butt" stroke-dasharray="4.0,3.0" d="m200.97728 10.129898l0 246.99211" fill-rule="evenodd"/><path fill="#000000" fill-opacity="0.0" d="m63.0534 154.6246c9.95163 9.95163 23.75998 20.283157 37.76378 18.881882c17.465652 -1.7476807 27.77871 -24.607285 45.154854 -27.091858c19.568726 -2.7980804 41.02733 8.187439 55.00525 22.16536" fill-rule="evenodd"/><path stroke="#6aa84f" stroke-width="2.0" stroke-linejoin="round" stroke-linecap="butt" d="m63.0534 154.6246c9.95163 9.95163 23.75998 20.283157 37.76378 18.881882c17.465652 -1.7476807 27.77871 -24.607285 45.154854 -27.091858c19.568726 -2.7980804 41.02733 8.187439 55.00525 22.16536" fill-rule="evenodd"/><path fill="#000000" fill-opacity="0.0" d="m200.97728 106.18501c30.179184 5.032547 59.947647 20.2164 90.30708 16.419952c19.919617 -2.4909515 36.664368 -16.773811 53.364838 -27.913391c16.251495 -10.840111 37.9321 -11.493431 57.467194 -11.493431" fill-rule="evenodd"/><path stroke="#bf9000" stroke-width="2.0" stroke-linejoin="round" stroke-linecap="butt" d="m200.97728 106.18501c30.179184 5.032547 59.947647 20.2164 90.30708 16.419952c19.919617 -2.4909515 36.664368 -16.773811 53.364838 -27.913391c16.251495 -10.840111 37.9321 -11.493431 57.467194 -11.493431" fill-rule="evenodd"/><path fill="#000000" fill-opacity="0.0" d="m402.1164 10.95142l0 246.17322" fill-rule="evenodd"/><path stroke="#666666" stroke-width="1.0" stroke-linejoin="round" stroke-linecap="butt" stroke-dasharray="4.0,3.0" d="m402.1164 10.95142l0 246.17322" fill-rule="evenodd"/><path fill="#000000" fill-opacity="0.0" d="m402.1164 164.05768c9.95163 9.95163 23.75998 20.283157 37.763763 18.881882c17.465668 -1.7476807 27.778717 -24.607285 45.154877 -27.091858c19.568726 -2.7980957 41.027344 8.187439 55.00525 22.165344" fill-rule="evenodd"/><path stroke="#6aa84f" stroke-width="2.0" stroke-linejoin="round" stroke-linecap="butt" d="m402.1164 164.05768c9.95163 9.95163 23.75998 20.283157 37.763763 18.881882c17.465668 -1.7476807 27.778717 -24.607285 45.154877 -27.091858c19.568726 -2.7980957 41.027344 8.187439 55.00525 22.165344" fill-rule="evenodd"/><path fill="#000000" fill-opacity="0.0" d="m201.47597 167.3635l0 -60.25197" fill-rule="evenodd"/><path stroke="#a64d79" stroke-width="2.0" stroke-linejoin="round" stroke-linecap="butt" d="m201.47597 167.3635l0 -48.25197" fill-rule="evenodd"/><path fill="#a64d79" stroke="#a64d79" stroke-width="2.0" stroke-linecap="butt" d="m204.77943 119.11153l-3.3034668 -9.076195l-3.3034668 9.076195z" fill-rule="evenodd"/><path fill="#000000" fill-opacity="0.0" d="m401.8959 82.84381l0 81.16536" fill-rule="evenodd"/><path stroke="#a64d79" stroke-width="2.0" stroke-linejoin="round" stroke-linecap="butt" d="m401.8959 82.8438l0 69.16537" fill-rule="evenodd"/><path fill="#a64d79" stroke="#a64d79" stroke-width="2.0" stroke-linecap="butt" d="m398.59244 152.00917l3.3034668 9.076187l3.3034668 -9.076187z" fill-rule="evenodd"/><path fill="#000000" fill-opacity="0.0" d="m272.18988 257.12463l45.19684 0l0 36.59845l-45.19684 0z" fill-rule="evenodd"/><path fill="#000000" d="m290.37424 273.8001l3.921875 0l0 0.34375q-0.375 0 -0.53125 0.125q-0.140625 0.125 -0.140625 0.328125q0 0.21875 0.3125 0.671875q0.109375 0.15625 0.3125 0.46875l0.578125 0.9375l0.6875 -0.9375q0.65625 -0.90625 0.65625 -1.140625q0 -0.203125 -0.15625 -0.328125q-0.15625 -0.125 -0.5 -0.125l0 -0.34375l2.828125 0l0 0.34375q-0.453125 0.015625 -0.78125 0.234375q-0.4375 0.3125 -1.21875 1.359375l-1.140625 1.515625l2.078125 2.984375q0.765625 1.109375 1.09375 1.328125q0.328125 0.21875 0.84375 0.25l0 0.328125l-3.921875 0l0 -0.328125q0.40625 0 0.625 -0.1875q0.171875 -0.125 0.171875 -0.328125q0 -0.21875 -0.578125 -1.0625l-1.21875 -1.78125l-1.34375 1.78125q-0.609375 0.828125 -0.609375 0.984375q0 0.21875 0.203125 0.40625q0.203125 0.171875 0.609375 0.1875l0 0.328125l-2.71875 0l0 -0.328125q0.328125 -0.046875 0.578125 -0.234375q0.34375 -0.25 1.15625 -1.34375l1.75 -2.328125l-1.578125 -2.28125q-0.671875 -0.984375 -1.046875 -1.234375q-0.375 -0.25 -0.921875 -0.25l0 -0.34375z" fill-rule="nonzero"/><path fill="#000000" fill-opacity="0.0" d="m17.856546 115.73882l45.196854 0l0 36.598427l-45.196854 0z" fill-rule="evenodd"/><path fill="#000000" d="m35.900284 132.41428l3.890625 0l0 0.34375l-0.1875 0q-0.421875 0 -0.625 0.171875q-0.203125 0.171875 -0.203125 0.4375q0 0.359375 0.296875 0.984375l2.03125 4.203125l1.875 -4.609375q0.15625 -0.359375 0.15625 -0.734375q0 -0.15625 -0.0625 -0.234375q-0.078125 -0.109375 -0.234375 -0.15625q-0.15625 -0.0625 -0.546875 -0.0625l0 -0.34375l2.71875 0l0 0.34375q-0.34375 0.03125 -0.53125 0.140625q-0.171875 0.109375 -0.390625 0.40625q-0.078125 0.125 -0.3125 0.703125l-3.390625 8.328125q-0.5 1.203125 -1.296875 1.828125q-0.796875 0.625 -1.53125 0.625q-0.53125 0 -0.890625 -0.3125q-0.34375 -0.3125 -0.34375 -0.71875q0 -0.375 0.25 -0.609375q0.25 -0.234375 0.6875 -0.234375q0.3125 0 0.828125 0.203125q0.359375 0.140625 0.453125 0.140625q0.28125 0 0.59375 -0.28125q0.328125 -0.28125 0.65625 -1.09375l0.59375 -1.453125l-3.0 -6.296875q-0.140625 -0.28125 -0.4375 -0.703125q-0.234375 -0.3125 -0.375 -0.421875q-0.203125 -0.140625 -0.671875 -0.25l0 -0.34375z" fill-rule="nonzero"/><path fill="#000000" fill-opacity="0.0" d="m109.66794 101.61546l57.921265 0l0 36.59842l-57.921265 0z" fill-rule="evenodd"/><path fill="#6aa84f" d="m125.37987 118.947174l0 5.484375q0 1.171875 0.25 1.46875q0.34375 0.40625 0.90625 0.40625l0.75 0l0 0.328125l-4.96875 0l0 -0.328125l0.359375 0q0.375 0 0.671875 -0.171875q0.296875 -0.1875 0.40625 -0.5q0.125 -0.3125 0.125 -1.203125l0 -5.484375l-1.625 0l0 -0.65625l1.625 0l0 -0.546875q0 -1.25 0.390625 -2.109375q0.40625 -0.875 1.234375 -1.40625q0.828125 -0.53125 1.859375 -0.53125q0.953125 0 1.75 0.625q0.53125 0.40625 0.53125 0.921875q0 0.265625 -0.234375 0.515625q-0.234375 0.234375 -0.515625 0.234375q-0.203125 0 -0.4375 -0.140625q-0.234375 -0.15625 -0.578125 -0.65625q-0.328125 -0.5 -0.609375 -0.671875q-0.28125 -0.171875 -0.640625 -0.171875q-0.40625 0 -0.703125 0.234375q-0.296875 0.21875 -0.421875 0.6875q-0.125 0.46875 -0.125 2.40625l0 0.609375l2.15625 0l0 0.65625l-2.15625 0z" fill-rule="nonzero"/><path fill="#6aa84f" d="m129.20192 126.2128l2.015625 -0.984375l0.1875 0l0 6.953125q0 0.6875 0.0625 0.859375q0.0625 0.171875 0.234375 0.265625q0.1875 0.09375 0.75 0.109375l0 0.21875l-3.09375 0l0 -0.21875q0.578125 -0.015625 0.75 -0.09375q0.171875 -0.09375 0.234375 -0.234375q0.0625 -0.15625 0.0625 -0.90625l0 -4.4375q0 -0.90625 -0.0625 -1.15625q-0.03125 -0.203125 -0.15625 -0.28125q-0.109375 -0.09375 -0.265625 -0.09375q-0.21875 0 -0.625 0.1875l-0.09375 -0.1875z" fill-rule="nonzero"/><path fill="#6aa84f" d="m139.76442 130.29092l0 0.328125q-1.375 -0.6875 -2.296875 -1.609375q-1.3125 -1.328125 -2.03125 -3.125q-0.703125 -1.796875 -0.703125 -3.71875q0 -2.828125 1.390625 -5.15625q1.390625 -2.328125 3.640625 -3.328125l0 0.375q-1.125 0.625 -1.84375 1.703125q-0.71875 1.078125 -1.078125 2.734375q-0.359375 1.640625 -0.359375 3.4375q0 1.9375 0.3125 3.53125q0.234375 1.265625 0.5625 2.015625q0.34375 0.765625 0.90625 1.46875q0.578125 0.703125 1.5 1.34375zm0.665802 -12.0l3.921875 0l0 0.34375q-0.375 0 -0.53125 0.125q-0.140625 0.125 -0.140625 0.328125q0 0.21875 0.3125 0.671875q0.109375 0.15625 0.3125 0.46875l0.578125 0.9375l0.6875 -0.9375q0.65625 -0.90625 0.65625 -1.140625q0 -0.203125 -0.15625 -0.328125q-0.15625 -0.125 -0.5 -0.125l0 -0.34375l2.828125 0l0 0.34375q-0.453125 0.015625 -0.78125 0.234375q-0.4375 0.3125 -1.21875 1.359375l-1.140625 1.515625l2.078125 2.984375q0.765625 1.109375 1.09375 1.328125q0.328125 0.21875 0.84375 0.25l0 0.328125l-3.921875 0l0 -0.328125q0.40625 0 0.625 -0.1875q0.171875 -0.125 0.171875 -0.328125q0 -0.21875 -0.578125 -1.0625l-1.21875 -1.78125l-1.34375 1.78125q-0.609375 0.828125 -0.609375 0.984375q0 0.21875 0.203125 0.40625q0.203125 0.171875 0.609375 0.1875l0 0.328125l-2.71875 0l0 -0.328125q0.328125 -0.046875 0.578125 -0.234375q0.34375 -0.25 1.15625 -1.34375l1.75 -2.328125l-1.578125 -2.28125q-0.671875 -0.984375 -1.046875 -1.234375q-0.375 -0.25 -0.921875 -0.25l0 -0.34375zm9.5 -4.234375l0 -0.375q1.375 0.6875 2.296875 1.609375q1.3125 1.328125 2.015625 3.125q0.71875 1.78125 0.71875 3.734375q0 2.8125 -1.390625 5.140625q-1.390625 2.328125 -3.640625 3.328125l0 -0.328125q1.125 -0.625 1.84375 -1.703125q0.71875 -1.0625 1.0625 -2.71875q0.359375 -1.65625 0.359375 -3.453125q0 -1.9375 -0.296875 -3.546875q-0.234375 -1.25 -0.578125 -2.0q-0.328125 -0.765625 -0.90625 -1.46875q-0.5625 -0.703125 -1.484375 -1.34375z" fill-rule="nonzero"/><path fill="#000000" fill-opacity="0.0" d="m272.19025 59.455357l57.921265 0l0 36.598423l-57.921265 0z" fill-rule="evenodd"/><path fill="#bf9000" d="m287.9022 76.78707l0 5.484375q0 1.171875 0.25 1.46875q0.34375 0.40625 0.90625 0.40625l0.75 0l0 0.328125l-4.96875 0l0 -0.328125l0.359375 0q0.375 0 0.671875 -0.171875q0.296875 -0.1875 0.40625 -0.5q0.125 -0.3125 0.125 -1.203125l0 -5.484375l-1.625 0l0 -0.65625l1.625 0l0 -0.546875q0 -1.25 0.390625 -2.109375q0.40625 -0.875 1.234375 -1.40625q0.828125 -0.53125 1.859375 -0.53125q0.953125 0 1.75 0.625q0.53125 0.40625 0.53125 0.921875q0 0.265625 -0.234375 0.515625q-0.234375 0.234375 -0.515625 0.234375q-0.203125 0 -0.4375 -0.140625q-0.234375 -0.15625 -0.578125 -0.65625q-0.328125 -0.5 -0.609375 -0.671875q-0.28125 -0.171875 -0.640625 -0.171875q-0.40625 0 -0.703125 0.234375q-0.296875 0.21875 -0.421875 0.6875q-0.125 0.46875 -0.125 2.40625l0 0.609375l2.15625 0l0 0.65625l-2.15625 0z" fill-rule="nonzero"/><path fill="#bf9000" d="m295.97424 89.89645l-0.578125 1.578125l-4.859375 0l0 -0.21875q2.140625 -1.96875 3.015625 -3.203125q0.875 -1.234375 0.875 -2.265625q0 -0.78125 -0.484375 -1.28125q-0.46875 -0.5 -1.140625 -0.5q-0.609375 0 -1.09375 0.359375q-0.484375 0.34375 -0.703125 1.03125l-0.234375 0q0.15625 -1.125 0.78125 -1.71875q0.625 -0.609375 1.578125 -0.609375q1.0 0 1.671875 0.640625q0.671875 0.640625 0.671875 1.515625q0 0.625 -0.296875 1.265625q-0.453125 0.96875 -1.453125 2.078125q-1.515625 1.65625 -1.890625 1.984375l2.140625 0q0.65625 0 0.921875 -0.046875q0.265625 -0.046875 0.46875 -0.1875q0.21875 -0.15625 0.390625 -0.421875l0.21875 0z" fill-rule="nonzero"/><path fill="#bf9000" d="m302.28674 88.13082l0 0.328125q-1.375 -0.6875 -2.296875 -1.609375q-1.3125 -1.328125 -2.03125 -3.125q-0.703125 -1.796875 -0.703125 -3.71875q0 -2.828125 1.390625 -5.15625q1.390625 -2.328125 3.640625 -3.328125l0 0.375q-1.125 0.625 -1.84375 1.703125q-0.71875 1.078125 -1.078125 2.734375q-0.359375 1.640625 -0.359375 3.4375q0 1.9375 0.3125 3.53125q0.234375 1.265625 0.5625 2.015625q0.34375 0.765625 0.90625 1.46875q0.578125 0.703125 1.5 1.34375zm0.665802 -12.0l3.921875 0l0 0.34375q-0.375 0 -0.53125 0.125q-0.140625 0.125 -0.140625 0.328125q0 0.21875 0.3125 0.671875q0.109375 0.15625 0.3125 0.46875l0.578125 0.9375l0.6875 -0.9375q0.65625 -0.90625 0.65625 -1.140625q0 -0.203125 -0.15625 -0.328125q-0.15625 -0.125 -0.5 -0.125l0 -0.34375l2.828125 0l0 0.34375q-0.453125 0.015625 -0.78125 0.234375q-0.4375 0.3125 -1.21875 1.359375l-1.140625 1.515625l2.078125 2.984375q0.765625 1.109375 1.09375 1.328125q0.328125 0.21875 0.84375 0.25l0 0.328125l-3.921875 0l0 -0.328125q0.40625 0 0.625 -0.1875q0.171875 -0.125 0.171875 -0.328125q0 -0.21875 -0.578125 -1.0625l-1.21875 -1.78125l-1.34375 1.78125q-0.609375 0.828125 -0.609375 0.984375q0 0.21875 0.203125 0.40625q0.203125 0.171875 0.609375 0.1875l0 0.328125l-2.71875 0l0 -0.328125q0.328125 -0.046875 0.578125 -0.234375q0.34375 -0.25 1.15625 -1.34375l1.75 -2.328125l-1.578125 -2.28125q-0.671875 -0.984375 -1.046875 -1.234375q-0.375 -0.25 -0.921875 -0.25l0 -0.34375zm9.5 -4.234375l0 -0.375q1.375 0.6875 2.296875 1.609375q1.3125 1.328125 2.015625 3.125q0.71875 1.78125 0.71875 3.734375q0 2.8125 -1.390625 5.140625q-1.390625 2.328125 -3.640625 3.328125l0 -0.328125q1.125 -0.625 1.84375 -1.703125q0.71875 -1.0625 1.0625 -2.71875q0.359375 -1.65625 0.359375 -3.453125q0 -1.9375 -0.296875 -3.546875q-0.234375 -1.25 -0.578125 -2.0q-0.328125 -0.765625 -0.90625 -1.46875q-0.5625 -0.703125 -1.484375 -1.34375z" fill-rule="nonzero"/><path fill="#000000" fill-opacity="0.0" d="m453.2821 115.32675l57.921265 0l0 36.59842l-57.921265 0z" fill-rule="evenodd"/><path fill="#6aa84f" d="m468.99405 132.65846l0 5.484375q0 1.171875 0.25 1.46875q0.34375 0.40625 0.90625 0.40625l0.75 0l0 0.328125l-4.96875 0l0 -0.328125l0.359375 0q0.375 0 0.671875 -0.171875q0.296875 -0.1875 0.40625 -0.5q0.125 -0.3125 0.125 -1.203125l0 -5.484375l-1.625 0l0 -0.65625l1.625 0l0 -0.546875q0 -1.25 0.390625 -2.109375q0.40625 -0.875 1.234375 -1.40625q0.828125 -0.53125 1.859375 -0.53125q0.953125 0 1.75 0.625q0.53125 0.40625 0.53125 0.921875q0 0.265625 -0.234375 0.515625q-0.234375 0.234375 -0.515625 0.234375q-0.203125 0 -0.4375 -0.140625q-0.234375 -0.15625 -0.578125 -0.65625q-0.328125 -0.5 -0.609375 -0.671875q-0.28125 -0.171875 -0.640625 -0.171875q-0.40625 0 -0.703125 0.234375q-0.296875 0.21875 -0.421875 0.6875q-0.125 0.46875 -0.125 2.40625l0 0.609375l2.15625 0l0 0.65625l-2.15625 0z" fill-rule="nonzero"/><path fill="#6aa84f" d="m472.8161 139.92409l2.015625 -0.984375l0.1875 0l0 6.953125q0 0.6875 0.0625 0.859375q0.0625 0.171875 0.234375 0.265625q0.1875 0.09375 0.75 0.109375l0 0.21875l-3.09375 0l0 -0.21875q0.578125 -0.015625 0.75 -0.09375q0.171875 -0.09375 0.234375 -0.234375q0.0625 -0.15625 0.0625 -0.90625l0 -4.4375q0 -0.90625 -0.0625 -1.15625q-0.03125 -0.203125 -0.15625 -0.28125q-0.109375 -0.09375 -0.265625 -0.09375q-0.21875 0 -0.625 0.1875l-0.09375 -0.1875z" fill-rule="nonzero"/><path fill="#6aa84f" d="m483.3786 144.00221l0 0.328125q-1.375 -0.6875 -2.296875 -1.609375q-1.3125 -1.328125 -2.03125 -3.125q-0.703125 -1.796875 -0.703125 -3.71875q0 -2.828125 1.390625 -5.15625q1.390625 -2.328125 3.640625 -3.328125l0 0.375q-1.125 0.625 -1.84375 1.703125q-0.71875 1.078125 -1.078125 2.734375q-0.359375 1.640625 -0.359375 3.4375q0 1.9375 0.3125 3.53125q0.234375 1.265625 0.5625 2.015625q0.34375 0.765625 0.90625 1.46875q0.578125 0.703125 1.5 1.34375zm0.665802 -12.0l3.921875 0l0 0.34375q-0.375 0 -0.53125 0.125q-0.140625 0.125 -0.140625 0.328125q0 0.21875 0.3125 0.671875q0.109375 0.15625 0.3125 0.46875l0.578125 0.9375l0.6875 -0.9375q0.65625 -0.90625 0.65625 -1.140625q0 -0.203125 -0.15625 -0.328125q-0.15625 -0.125 -0.5 -0.125l0 -0.34375l2.828125 0l0 0.34375q-0.453125 0.015625 -0.78125 0.234375q-0.4375 0.3125 -1.21875 1.359375l-1.140625 1.515625l2.078125 2.984375q0.765625 1.109375 1.09375 1.328125q0.328125 0.21875 0.84375 0.25l0 0.328125l-3.921875 0l0 -0.328125q0.40625 0 0.625 -0.1875q0.171875 -0.125 0.171875 -0.328125q0 -0.21875 -0.578125 -1.0625l-1.21875 -1.78125l-1.34375 1.78125q-0.609375 0.828125 -0.609375 0.984375q0 0.21875 0.203125 0.40625q0.203125 0.171875 0.609375 0.1875l0 0.328125l-2.71875 0l0 -0.328125q0.328125 -0.046875 0.578125 -0.234375q0.34375 -0.25 1.15625 -1.34375l1.75 -2.328125l-1.578125 -2.28125q-0.671875 -0.984375 -1.046875 -1.234375q-0.375 -0.25 -0.921875 -0.25l0 -0.34375zm9.5 -4.234375l0 -0.375q1.375 0.6875 2.296875 1.609375q1.3125 1.328125 2.015625 3.125q0.71875 1.78125 0.71875 3.734375q0 2.8125 -1.390625 5.140625q-1.390625 2.328125 -3.640625 3.328125l0 -0.328125q1.125 -0.625 1.84375 -1.703125q0.71875 -1.0625 1.0625 -2.71875q0.359375 -1.65625 0.359375 -3.453125q0 -1.9375 -0.296875 -3.546875q-0.234375 -1.25 -0.578125 -2.0q-0.328125 -0.765625 -0.90625 -1.46875q-0.5625 -0.703125 -1.484375 -1.34375z" fill-rule="nonzero"/><path fill="#000000" fill-opacity="0.0" d="m196.4015 123.25588l64.913376 0l0 36.598427l-64.913376 0z" fill-rule="evenodd"/><path fill="#a64d79" d="m216.089 144.85321l0.3125 0.0625l-1.0625 3.359375l-9.5625 0l0 -0.34375l0.46875 0q0.78125 0 1.109375 -0.5q0.203125 -0.296875 0.203125 -1.359375l0 -7.96875q0 -1.15625 -0.265625 -1.4375q-0.34375 -0.40625 -1.046875 -0.40625l-0.46875 0l0 -0.34375l5.59375 0l0 0.34375q-0.984375 -0.015625 -1.390625 0.1875q-0.390625 0.1875 -0.53125 0.484375q-0.140625 0.28125 -0.140625 1.390625l0 7.75q0 0.765625 0.140625 1.046875q0.109375 0.1875 0.328125 0.28125q0.234375 0.09375 1.421875 0.09375l0.90625 0q1.421875 0 2.0 -0.203125q0.578125 -0.21875 1.046875 -0.75q0.46875 -0.53125 0.9375 -1.6875z" fill-rule="nonzero"/><path fill="#a64d79" d="m218.25061 147.85321l2.015625 -0.984375l0.1875 0l0 6.953125q0 0.6875 0.0625 0.859375q0.0625 0.171875 0.234375 0.265625q0.1875 0.09375 0.75 0.109375l0 0.21875l-3.09375 0l0 -0.21875q0.578125 -0.015625 0.75 -0.09375q0.171875 -0.09375 0.234375 -0.234375q0.0625 -0.15625 0.0625 -0.90625l0 -4.4375q0 -0.90625 -0.0625 -1.15625q-0.03125 -0.203125 -0.15625 -0.28125q-0.109375 -0.09375 -0.265625 -0.09375q-0.21875 0 -0.625 0.1875l-0.09375 -0.1875z" fill-rule="nonzero"/><path fill="#a64d79" d="m228.81311 151.93134l0 0.328125q-1.375 -0.6875 -2.296875 -1.609375q-1.3125 -1.328125 -2.03125 -3.125q-0.703125 -1.796875 -0.703125 -3.71875q0 -2.828125 1.390625 -5.15625q1.390625 -2.328125 3.640625 -3.328125l0 0.375q-1.125 0.625 -1.84375 1.703125q-0.71875 1.078125 -1.078125 2.734375q-0.359375 1.640625 -0.359375 3.4375q0 1.9375 0.3125 3.53125q0.234375 1.265625 0.5625 2.015625q0.34375 0.765625 0.90625 1.46875q0.578125 0.703125 1.5 1.34375z" fill-rule="nonzero"/><path fill="#6aa84f" d="m229.47891 139.93134l3.921875 0l0 0.34375q-0.375 0 -0.53125 0.125q-0.140625 0.125 -0.140625 0.328125q0 0.21875 0.3125 0.671875q0.109375 0.15625 0.3125 0.46875l0.578125 0.9375l0.6875 -0.9375q0.65625 -0.90625 0.65625 -1.140625q0 -0.203125 -0.15625 -0.328125q-0.15625 -0.125 -0.5 -0.125l0 -0.34375l2.828125 0l0 0.34375q-0.453125 0.015625 -0.78125 0.234375q-0.4375 0.3125 -1.21875 1.359375l-1.140625 1.515625l2.078125 2.984375q0.765625 1.109375 1.09375 1.328125q0.328125 0.21875 0.84375 0.25l0 0.328125l-3.921875 0l0 -0.328125q0.40625 0 0.625 -0.1875q0.171875 -0.125 0.171875 -0.328125q0 -0.21875 -0.578125 -1.0625l-1.21875 -1.78125l-1.34375 1.78125q-0.609375 0.828125 -0.609375 0.984375q0 0.21875 0.203125 0.40625q0.203125 0.171875 0.609375 0.1875l0 0.328125l-2.71875 0l0 -0.328125q0.328125 -0.046875 0.578125 -0.234375q0.34375 -0.25 1.15625 -1.34375l1.75 -2.328125l-1.578125 -2.28125q-0.671875 -0.984375 -1.046875 -1.234375q-0.375 -0.25 -0.921875 -0.25l0 -0.34375z" fill-rule="nonzero"/><path fill="#6aa84f" d="m239.05704 138.02509l3.140625 0l0 0.921875l-3.140625 0l0 -0.921875z" fill-rule="nonzero"/><path fill="#a64d79" d="m243.1207 135.69696l0 -0.375q1.375 0.6875 2.296875 1.609375q1.3125 1.328125 2.015625 3.125q0.71875 1.78125 0.71875 3.734375q0 2.8125 -1.390625 5.140625q-1.390625 2.328125 -3.640625 3.328125l0 -0.328125q1.125 -0.625 1.84375 -1.703125q0.71875 -1.0625 1.0625 -2.71875q0.359375 -1.65625 0.359375 -3.453125q0 -1.9375 -0.296875 -3.546875q-0.234375 -1.25 -0.578125 -2.0q-0.328125 -0.765625 -0.90625 -1.46875q-0.5625 -0.703125 -1.484375 -1.34375z" fill-rule="nonzero"/><path fill="#000000" fill-opacity="0.0" d="m346.1747 110.41055l70.55118 0l0 36.59842l-70.55118 0z" fill-rule="evenodd"/><path fill="#a64d79" d="m365.8622 132.00789l0.3125 0.0625l-1.0625 3.359375l-9.5625 0l0 -0.34375l0.46875 0q0.78125 0 1.109375 -0.5q0.203125 -0.296875 0.203125 -1.359375l0 -7.96875q0 -1.15625 -0.265625 -1.4375q-0.34375 -0.40625 -1.046875 -0.40625l-0.46875 0l0 -0.34375l5.59375 0l0 0.34375q-0.984375 -0.015625 -1.390625 0.1875q-0.390625 0.1875 -0.53125 0.484375q-0.140625 0.28125 -0.140625 1.390625l0 7.75q0 0.765625 0.140625 1.046875q0.109375 0.1875 0.328125 0.28125q0.234375 0.09375 1.421875 0.09375l0.90625 0q1.421875 0 2.0 -0.203125q0.578125 -0.21875 1.046875 -0.75q0.46875 -0.53125 0.9375 -1.6875z" fill-rule="nonzero"/><path fill="#a64d79" d="m372.2738 140.85164l-0.578125 1.578125l-4.859375 0l0 -0.21875q2.140625 -1.96875 3.015625 -3.203125q0.875 -1.234375 0.875 -2.265625q0 -0.78125 -0.484375 -1.28125q-0.46875 -0.5 -1.140625 -0.5q-0.609375 0 -1.09375 0.359375q-0.484375 0.34375 -0.703125 1.03125l-0.234375 0q0.15625 -1.125 0.78125 -1.71875q0.625 -0.609375 1.578125 -0.609375q1.0 0 1.671875 0.640625q0.671875 0.640625 0.671875 1.515625q0 0.625 -0.296875 1.265625q-0.453125 0.96875 -1.453125 2.078125q-1.515625 1.65625 -1.890625 1.984375l2.140625 0q0.65625 0 0.921875 -0.046875q0.265625 -0.046875 0.46875 -0.1875q0.21875 -0.15625 0.390625 -0.421875l0.21875 0z" fill-rule="nonzero"/><path fill="#a64d79" d="m378.5863 139.08601l0 0.328125q-1.375 -0.6875 -2.296875 -1.609375q-1.3125 -1.328125 -2.03125 -3.125q-0.703125 -1.796875 -0.703125 -3.71875q0 -2.828125 1.390625 -5.15625q1.390625 -2.328125 3.640625 -3.328125l0 0.375q-1.125 0.625 -1.84375 1.703125q-0.71875 1.078125 -1.078125 2.734375q-0.359375 1.640625 -0.359375 3.4375q0 1.9375 0.3125 3.53125q0.234375 1.265625 0.5625 2.015625q0.34375 0.765625 0.90625 1.46875q0.578125 0.703125 1.5 1.34375z" fill-rule="nonzero"/><path fill="#bf9000" d="m379.2521 127.08601l3.921875 0l0 0.34375q-0.375 0 -0.53125 0.125q-0.140625 0.125 -0.140625 0.328125q0 0.21875 0.3125 0.671875q0.109375 0.15625 0.3125 0.46875l0.578125 0.9375l0.6875 -0.9375q0.65625 -0.90625 0.65625 -1.140625q0 -0.203125 -0.15625 -0.328125q-0.15625 -0.125 -0.5 -0.125l0 -0.34375l2.828125 0l0 0.34375q-0.453125 0.015625 -0.78125 0.234375q-0.4375 0.3125 -1.21875 1.359375l-1.140625 1.515625l2.078125 2.984375q0.765625 1.109375 1.09375 1.328125q0.328125 0.21875 0.84375 0.25l0 0.328125l-3.921875 0l0 -0.328125q0.40625 0 0.625 -0.1875q0.171875 -0.125 0.171875 -0.328125q0 -0.21875 -0.578125 -1.0625l-1.21875 -1.78125l-1.34375 1.78125q-0.609375 0.828125 -0.609375 0.984375q0 0.21875 0.203125 0.40625q0.203125 0.171875 0.609375 0.1875l0 0.328125l-2.71875 0l0 -0.328125q0.328125 -0.046875 0.578125 -0.234375q0.34375 -0.25 1.15625 -1.34375l1.75 -2.328125l-1.578125 -2.28125q-0.671875 -0.984375 -1.046875 -1.234375q-0.375 -0.25 -0.921875 -0.25l0 -0.34375z" fill-rule="nonzero"/><path fill="#bf9000" d="m388.83023 125.17976l3.140625 0l0 0.921875l-3.140625 0l0 -0.921875z" fill-rule="nonzero"/><path fill="#a64d79" d="m392.8939 122.85164l0 -0.375q1.375 0.6875 2.296875 1.609375q1.3125 1.328125 2.015625 3.125q0.71875 1.78125 0.71875 3.734375q0 2.8125 -1.390625 5.140625q-1.390625 2.328125 -3.640625 3.328125l0 -0.328125q1.125 -0.625 1.84375 -1.703125q0.71875 -1.0625 1.0625 -2.71875q0.359375 -1.65625 0.359375 -3.453125q0 -1.9375 -0.296875 -3.546875q-0.234375 -1.25 -0.578125 -2.0q-0.328125 -0.765625 -0.90625 -1.46875q-0.5625 -0.703125 -1.484375 -1.34375z" fill-rule="nonzero"/></g></svg>